<svg width="14" height="15" viewBox="0 0 14 15" fill="none" xmlns="http://www.w3.org/2000/svg">
<path d="M6.61328 7.5C8.54628 7.5 10.1133 5.933 10.1133 4C10.1133 2.067 8.54628 0.5 6.61328 0.5C4.68028 0.5 3.11328 2.067 3.11328 4C3.11328 5.933 4.68028 7.5 6.61328 7.5Z" stroke="black"/>
<path d="M10.1141 14.4999H1.9003C1.70177 14.4999 1.5055 14.4578 1.32452 14.3762C1.14353 14.2945 0.981976 14.1754 0.850568 14.0266C0.71916 13.8777 0.620906 13.7027 0.562328 13.513C0.50375 13.3233 0.486187 13.1233 0.510805 12.9263L0.783805 10.7395C0.847293 10.2315 1.0942 9.76411 1.47809 9.42534C1.86198 9.08656 2.35641 8.89971 2.86841 8.8999H3.11411M11.5141 8.8999V11.6999M10.1141 10.2999H12.9141" stroke="black" stroke-linecap="round" stroke-linejoin="round"/>
</svg>
