<svg width="17" height="12" viewBox="0 0 17 12" fill="none" xmlns="http://www.w3.org/2000/svg">
<path d="M4.87164 12C4.27844 12 3.77337 11.7914 3.35642 11.3743C2.93947 10.9589 2.73099 10.4531 2.73099 9.85714H1.34411C1.22261 9.85714 1.12109 9.816 1.03952 9.73371C0.957958 9.65143 0.91689 9.54943 0.91632 9.42771C0.915749 9.306 0.956817 9.20428 1.03952 9.12257C1.12223 9.04086 1.22376 9 1.34411 9H2.95002C3.10459 8.61886 3.35413 8.30914 3.69865 8.07086C4.04316 7.83314 4.43358 7.71429 4.86993 7.71429C5.30627 7.71429 5.69698 7.83314 6.04206 8.07086C6.386 8.30914 6.63526 8.61886 6.78983 9H10.7409L12.6197 0.857143H3.76795C3.64646 0.857143 3.54464 0.816 3.46251 0.733714C3.38037 0.651428 3.33959 0.549429 3.34016 0.427714C3.34073 0.306 3.38151 0.204286 3.46251 0.122572C3.5435 0.0408573 3.64531 0 3.76795 0H12.8174C13.0364 0 13.2149 0.0880001 13.3529 0.264C13.4915 0.44 13.536 0.636 13.4864 0.852L12.9962 3H14.0836C14.3026 3 14.51 3.04914 14.7056 3.14743C14.9018 3.24514 15.0632 3.38057 15.1899 3.55371L16.7273 5.60914C16.8517 5.776 16.9324 5.95 16.9695 6.13114C17.0071 6.31171 17.0099 6.50143 16.978 6.70029L16.4664 9.30343C16.4344 9.47029 16.3534 9.60429 16.2234 9.70543C16.0933 9.80657 15.9456 9.85714 15.7802 9.85714H15.367C15.367 10.4509 15.1593 10.9566 14.7441 11.3743C14.3289 11.792 13.8241 12.0006 13.2297 12C12.6354 11.9994 12.1303 11.7909 11.7145 11.3743C11.2981 10.9583 11.0899 10.4526 11.0899 9.85714H7.00886C7.00886 10.4509 6.80124 10.9566 6.386 11.3743C5.97076 11.792 5.46598 12.0006 4.87164 12ZM12.0456 7.07143H16.0249L16.1763 6.30857L14.3471 3.85714H12.7917L12.0456 7.07143ZM10.9479 8.14114L11.0591 7.644C11.1333 7.31257 11.2274 6.90686 11.3415 6.42686C11.4059 6.164 11.4624 5.92114 11.5109 5.69829C11.5588 5.47543 11.597 5.29086 11.6255 5.14457L11.7368 4.64743C11.8109 4.316 11.905 3.91029 12.0191 3.43029C12.1332 2.95029 12.2273 2.54457 12.3014 2.21314L12.4127 1.716L12.6197 0.857143L10.74 9L10.9479 8.14114ZM0.411531 6.85543C0.294603 6.85543 0.196782 6.81429 0.118069 6.732C0.0393564 6.64971 0 6.548 0 6.42686C0 6.30571 0.0407824 6.20371 0.122347 6.12086C0.203912 6.038 0.305725 5.99714 0.427787 5.99829H3.40518C3.52668 5.99829 3.62849 6.03943 3.71062 6.12171C3.79276 6.204 3.83354 6.306 3.83297 6.42771C3.8324 6.54943 3.79162 6.65114 3.71062 6.73286C3.62963 6.81457 3.52782 6.85543 3.40518 6.85543H0.411531ZM2.12268 3.85886C2.00119 3.85886 1.89937 3.81771 1.81724 3.73543C1.7351 3.65314 1.69404 3.55114 1.69404 3.42943C1.69404 3.30771 1.7351 3.206 1.81724 3.12429C1.89937 3.04257 2.0009 3.00171 2.12182 3.00171H5.97191C6.0934 3.00171 6.19521 3.04286 6.27735 3.12514C6.35891 3.20743 6.39969 3.30943 6.39969 3.43114C6.39969 3.55286 6.35891 3.65457 6.27735 3.73629C6.19578 3.818 6.09397 3.85886 5.97191 3.85886H2.12268ZM4.86993 11.1429C5.22185 11.1429 5.52387 11.0169 5.77598 10.7649C6.02752 10.5123 6.15329 10.2097 6.15329 9.85714C6.15329 9.50457 6.02752 9.202 5.77598 8.94943C5.52444 8.69686 5.22242 8.57086 4.86993 8.57143C4.51743 8.572 4.21541 8.698 3.96387 8.94943C3.71233 9.202 3.58657 9.50457 3.58657 9.85714C3.58657 10.2097 3.71233 10.5123 3.96387 10.7649C4.21598 11.0169 4.518 11.1429 4.86993 11.1429ZM13.2289 11.1429C13.5808 11.1429 13.8825 11.0169 14.1341 10.7649C14.3856 10.5123 14.5114 10.2097 14.5114 9.85714C14.5114 9.50457 14.3856 9.202 14.1341 8.94943C13.8825 8.69686 13.5805 8.57086 13.228 8.57143C12.8755 8.572 12.5738 8.698 12.3228 8.94943C12.0707 9.202 11.9447 9.50457 11.9447 9.85714C11.9447 10.2097 12.0704 10.5123 12.322 10.7649C12.5741 11.0169 12.8764 11.1429 13.2289 11.1429Z" fill="black"/>
</svg>
