<svg width="20" height="20" viewBox="0 0 20 20" fill="none" xmlns="http://www.w3.org/2000/svg">
<path d="M9.61658 2.00391C10.5592 2.00362 11.4771 2.30549 12.2355 2.86523C12.9939 3.42496 13.553 4.21307 13.8306 5.11388C14.1082 6.0147 14.0897 6.98077 13.7778 7.87031C13.466 8.75985 12.8772 9.526 12.0979 10.0563C13.4506 10.5524 14.6237 11.442 15.4665 12.6106C16.3092 13.7791 16.7829 15.1731 16.8266 16.6132C16.8307 16.6931 16.8188 16.7731 16.7916 16.8483C16.7644 16.9236 16.7224 16.9927 16.6681 17.0515C16.6138 17.1103 16.5484 17.1577 16.4755 17.1909C16.4027 17.2241 16.324 17.2424 16.244 17.2447C16.164 17.2471 16.0843 17.2334 16.0096 17.2046C15.935 17.1757 15.8668 17.1322 15.8092 17.0767C15.7516 17.0212 15.7056 16.9547 15.674 16.8811C15.6424 16.8076 15.6258 16.7285 15.6252 16.6484C15.5775 15.0867 14.9236 13.605 13.802 12.5172C12.6805 11.4294 11.1794 10.821 9.61698 10.821C8.05455 10.821 6.5535 11.4294 5.43195 12.5172C4.31039 13.605 3.65646 15.0867 3.60873 16.6484C3.60395 16.8079 3.53603 16.9589 3.41992 17.0682C3.30381 17.1776 3.14902 17.2363 2.98959 17.2315C2.83017 17.2267 2.67918 17.1588 2.56983 17.0427C2.46048 16.9266 2.40174 16.7718 2.40652 16.6124C2.4504 15.1725 2.92419 13.7786 3.76691 12.6102C4.60963 11.4418 5.78273 10.5524 7.13522 10.0563C6.35594 9.526 5.76717 8.75985 5.45533 7.87031C5.14349 6.98077 5.12501 6.0147 5.4026 5.11388C5.68019 4.21307 6.23922 3.42496 6.99765 2.86523C7.75609 2.30549 8.67397 2.00362 9.61658 2.00391ZM6.41069 6.41202C6.41069 7.26227 6.74845 8.0777 7.34967 8.67893C7.95089 9.28015 8.76633 9.61791 9.61658 9.61791C10.4668 9.61791 11.2823 9.28015 11.8835 8.67893C12.4847 8.0777 12.8225 7.26227 12.8225 6.41202C12.8225 5.56176 12.4847 4.74633 11.8835 4.1451C11.2823 3.54388 10.4668 3.20612 9.61658 3.20612C8.76633 3.20612 7.95089 3.54388 7.34967 4.1451C6.74845 4.74633 6.41069 5.56176 6.41069 6.41202Z" fill="#99A1AF"/>
</svg>
