<svg width="14" height="14" viewBox="0 0 14 14" fill="none" xmlns="http://www.w3.org/2000/svg">
<path fill-rule="evenodd" clip-rule="evenodd" d="M12.32 11.55C13.37 10.325 14 8.74125 14 7C14 3.1325 10.8675 0 7 0C3.1325 0 0 3.1325 0 7C0 10.8675 3.1325 14 7 14C8.01214 14.0013 9.01246 13.7826 9.93167 13.3589C10.8509 12.9353 11.667 12.3168 12.3235 11.5465L12.32 11.55ZM10.9287 11.7022C9.82842 12.6262 8.43683 13.1314 7 13.1285C3.61375 13.1285 0.875 10.3897 0.875 7.0035C0.875 5.50725 1.4105 4.14225 2.30125 3.07475L10.9287 11.7022ZM11.7022 10.9287L3.07475 2.30125C4.17508 1.37726 5.56667 0.87207 7.0035 0.875C10.3897 0.875 13.1285 3.61375 13.1285 7C13.1285 8.49625 12.593 9.86125 11.7022 10.9287Z" fill="black"/>
</svg>
