<svg width="20" height="20" viewBox="0 0 20 20" fill="none" xmlns="http://www.w3.org/2000/svg">
<g clip-path="url(#clip0_1911_227)">
<path d="M17.5008 9.99969C17.9608 9.99969 18.3383 9.62552 18.2925 9.16802C18.1004 7.25483 17.2526 5.46694 15.8928 4.10746C14.533 2.74797 12.7449 1.90055 10.8317 1.70886C10.3733 1.66302 10 2.04052 10 2.50052V9.16719C10 9.3882 10.0878 9.60016 10.2441 9.75644C10.4004 9.91273 10.6123 10.0005 10.8333 10.0005L17.5008 9.99969Z" stroke="#90A1B9" stroke-width="1.5" stroke-linecap="round" stroke-linejoin="round"/>
<path d="M17.6766 13.2417C17.1465 14.4955 16.3173 15.6002 15.2615 16.4595C14.2058 17.3187 12.9556 17.9063 11.6203 18.1707C10.2851 18.4352 8.90532 18.3685 7.60176 17.9766C6.2982 17.5846 5.11049 16.8793 4.14249 15.9223C3.17448 14.9653 2.45565 13.7857 2.04883 12.4867C1.64202 11.1877 1.55961 9.8088 1.8088 8.47059C2.058 7.13238 2.63122 5.87559 3.47834 4.81009C4.32547 3.74459 5.42071 2.90283 6.66831 2.3584" stroke="#90A1B9" stroke-width="1.5" stroke-linecap="round" stroke-linejoin="round"/>
</g>
<defs>
<clipPath id="clip0_1911_227">
<rect width="20" height="20" fill="white"/>
</clipPath>
</defs>
</svg>
