<svg width="20" height="20" viewBox="0 0 20 20" fill="none" xmlns="http://www.w3.org/2000/svg">
<path d="M6.41293 8.01433H12.8247M6.41293 14.4261H12.8247M6.41293 11.2202H9.61883M3.20703 17.1511V2.08342C3.20703 1.95589 3.2577 1.83357 3.34788 1.74339C3.43806 1.6532 3.56038 1.60254 3.68792 1.60254H13.0267C13.1542 1.60265 13.2764 1.65339 13.3665 1.7436L15.8896 4.26664C15.9344 4.31144 15.97 4.36467 15.9942 4.42327C16.0184 4.48186 16.0308 4.54467 16.0306 4.60807V17.1511C16.0306 17.2143 16.0182 17.2768 15.994 17.3352C15.9698 17.3935 15.9344 17.4465 15.8898 17.4912C15.8451 17.5358 15.7921 17.5713 15.7338 17.5954C15.6754 17.6196 15.6129 17.632 15.5497 17.632H3.68792C3.62477 17.632 3.56223 17.6196 3.50389 17.5954C3.44555 17.5713 3.39253 17.5358 3.34788 17.4912C3.30322 17.4465 3.2678 17.3935 3.24364 17.3352C3.21947 17.2768 3.20703 17.2143 3.20703 17.1511Z" stroke="#99A1AF" stroke-width="1.20221" stroke-linecap="round" stroke-linejoin="round"/>
<path d="M12.8242 1.60254V4.32755C12.8242 4.45509 12.8749 4.57741 12.9651 4.66759C13.0552 4.75777 13.1776 4.80844 13.3051 4.80844H16.0301" stroke="#99A1AF" stroke-width="1.20221" stroke-linecap="round" stroke-linejoin="round"/>
</svg>
