<svg width="14" height="13" viewBox="0 0 14 13" fill="none" xmlns="http://www.w3.org/2000/svg">
<path d="M2.86032 1C2.37757 1 1.91459 1.18437 1.57324 1.51256C1.23189 1.84075 1.04011 2.28587 1.04011 2.75V10.25C1.04011 10.7141 1.23189 11.1592 1.57324 11.4874C1.91459 11.8156 2.37757 12 2.86032 12H10.6612C11.1439 12 11.6069 11.8156 11.9483 11.4874C12.2896 11.1592 12.4814 10.7141 12.4814 10.25V8C12.4814 7.86739 12.5362 7.74021 12.6337 7.64645C12.7312 7.55268 12.8635 7.5 13.0014 7.5C13.1394 7.5 13.2716 7.55268 13.3692 7.64645C13.4667 7.74021 13.5215 7.86739 13.5215 8V10.25C13.5215 10.9793 13.2201 11.6788 12.6837 12.1945C12.1473 12.7103 11.4198 13 10.6612 13H2.86032C2.10171 13 1.37418 12.7103 0.837767 12.1945C0.301354 11.6788 0 10.9793 0 10.25V2.75C0 2.02065 0.301354 1.32118 0.837767 0.805456C1.37418 0.289731 2.10171 0 2.86032 0H5.20057C5.3385 0 5.47078 0.0526784 5.56831 0.146447C5.66584 0.240215 5.72063 0.367392 5.72063 0.5C5.72063 0.632608 5.66584 0.759785 5.56831 0.853553C5.47078 0.947321 5.3385 1 5.20057 1H2.86032ZM7.80086 0.5C7.80086 0.367392 7.85565 0.240215 7.95318 0.146447C8.05071 0.0526784 8.18299 0 8.32092 0H13.0014C13.1394 0 13.2716 0.0526784 13.3692 0.146447C13.4667 0.240215 13.5215 0.367392 13.5215 0.5V5C13.5215 5.13261 13.4667 5.25979 13.3692 5.35355C13.2716 5.44732 13.1394 5.5 13.0014 5.5C12.8635 5.5 12.7312 5.44732 12.6337 5.35355C12.5362 5.25979 12.4814 5.13261 12.4814 5V1.707L8.6886 5.3535C8.59051 5.44458 8.45915 5.49498 8.32279 5.49384C8.18643 5.4927 8.05599 5.44011 7.95957 5.34741C7.86315 5.25471 7.80845 5.1293 7.80727 4.9982C7.80608 4.8671 7.8585 4.7408 7.95324 4.6465L11.746 1H8.32092C8.18299 1 8.05071 0.947321 7.95318 0.853553C7.85565 0.759785 7.80086 0.632608 7.80086 0.5Z" fill="black"/>
</svg>
