<svg width="21" height="21" viewBox="0 0 21 21" fill="none" xmlns="http://www.w3.org/2000/svg">
<path d="M16.4062 21C17.6246 21 18.793 20.516 19.6545 19.6545C20.516 18.793 21 17.6246 21 16.4062C21 15.1879 20.516 14.0195 19.6545 13.158C18.793 12.2965 17.6246 11.8125 16.4062 11.8125C15.1879 11.8125 14.0195 12.2965 13.158 13.158C12.2965 14.0195 11.8125 15.1879 11.8125 16.4062C11.8125 17.6246 12.2965 18.793 13.158 19.6545C14.0195 20.516 15.1879 21 16.4062 21ZM17.0625 14.4375V15.75H18.375C18.549 15.75 18.716 15.8191 18.839 15.9422C18.9621 16.0653 19.0312 16.2322 19.0312 16.4062C19.0312 16.5803 18.9621 16.7472 18.839 16.8703C18.716 16.9934 18.549 17.0625 18.375 17.0625H17.0625V18.375C17.0625 18.549 16.9934 18.716 16.8703 18.839C16.7472 18.9621 16.5803 19.0312 16.4062 19.0312C16.2322 19.0312 16.0653 18.9621 15.9422 18.839C15.8191 18.716 15.75 18.549 15.75 18.375V17.0625H14.4375C14.2635 17.0625 14.0965 16.9934 13.9735 16.8703C13.8504 16.7472 13.7812 16.5803 13.7812 16.4062C13.7812 16.2322 13.8504 16.0653 13.9735 15.9422C14.0965 15.8191 14.2635 15.75 14.4375 15.75H15.75V14.4375C15.75 14.2635 15.8191 14.0965 15.9422 13.9735C16.0653 13.8504 16.2322 13.7812 16.4062 13.7812C16.5803 13.7812 16.7472 13.8504 16.8703 13.9735C16.9934 14.0965 17.0625 14.2635 17.0625 14.4375ZM14.4375 6.5625C14.4375 7.60679 14.0227 8.60831 13.2842 9.34673C12.5458 10.0852 11.5443 10.5 10.5 10.5C9.45571 10.5 8.45419 10.0852 7.71577 9.34673C6.97734 8.60831 6.5625 7.60679 6.5625 6.5625C6.5625 5.51821 6.97734 4.51669 7.71577 3.77827C8.45419 3.03984 9.45571 2.625 10.5 2.625C11.5443 2.625 12.5458 3.03984 13.2842 3.77827C14.0227 4.51669 14.4375 5.51821 14.4375 6.5625ZM10.5 9.1875C11.1962 9.1875 11.8639 8.91094 12.3562 8.41866C12.8484 7.92637 13.125 7.25869 13.125 6.5625C13.125 5.86631 12.8484 5.19863 12.3562 4.70634C11.8639 4.21406 11.1962 3.9375 10.5 3.9375C9.80381 3.9375 9.13613 4.21406 8.64384 4.70634C8.15156 5.19863 7.875 5.86631 7.875 6.5625C7.875 7.25869 8.15156 7.92637 8.64384 8.41866C9.13613 8.91094 9.80381 9.1875 10.5 9.1875Z" fill="#6A7282"/>
<path d="M10.836 18.375C10.6857 17.9487 10.5849 17.5066 10.5354 17.0573H3.9375C3.93881 16.7344 4.13963 15.7631 5.0295 14.8732C5.88525 14.0175 7.49569 13.125 10.5 13.125C10.8413 13.125 11.165 13.1359 11.4713 13.1578C11.7679 12.7102 12.1223 12.3047 12.5265 11.9529C11.914 11.8611 11.2385 11.8142 10.5 11.8125C3.9375 11.8125 2.625 15.75 2.625 17.0625C2.625 18.375 3.9375 18.375 3.9375 18.375H10.836Z" fill="#6A7282"/>
</svg>
