<svg width="21" height="21" viewBox="0 0 21 21" fill="none" xmlns="http://www.w3.org/2000/svg">
<path d="M10.5 14.875C10.7479 14.875 10.9559 14.791 11.1239 14.623C11.2919 14.455 11.3756 14.2473 11.375 14V10.5C11.375 10.2521 11.291 10.0444 11.123 9.877C10.955 9.70958 10.7473 9.62558 10.5 9.625C10.2527 9.62442 10.045 9.70842 9.877 9.877C9.709 10.0456 9.625 10.2533 9.625 10.5V14C9.625 14.2479 9.709 14.4559 9.877 14.6239C10.045 14.7919 10.2527 14.8756 10.5 14.875ZM10.5 7.875C10.7479 7.875 10.9559 7.791 11.1239 7.623C11.2919 7.455 11.3756 7.24733 11.375 7C11.3744 6.75267 11.2904 6.545 11.123 6.377C10.9556 6.209 10.7479 6.125 10.5 6.125C10.2521 6.125 10.0444 6.209 9.877 6.377C9.70958 6.545 9.62558 6.75267 9.625 7C9.62442 7.24733 9.70842 7.45529 9.877 7.62388C10.0456 7.79246 10.2533 7.87617 10.5 7.875ZM10.5 19.25C9.28958 19.25 8.15208 19.0202 7.0875 18.5605C6.02292 18.1008 5.09688 17.4775 4.30938 16.6906C3.52188 15.9037 2.89858 14.9777 2.4395 13.9125C1.98042 12.8473 1.75058 11.7098 1.75 10.5C1.74942 9.29017 1.97925 8.15267 2.4395 7.0875C2.89975 6.02233 3.52304 5.09629 4.30938 4.30938C5.09571 3.52246 6.02175 2.89917 7.0875 2.4395C8.15325 1.97983 9.29075 1.75 10.5 1.75C11.7093 1.75 12.8468 1.97983 13.9125 2.4395C14.9783 2.89917 15.9043 3.52246 16.6906 4.30938C17.477 5.09629 18.1005 6.02233 18.5614 7.0875C19.0222 8.15267 19.2518 9.29017 19.25 10.5C19.2483 11.7098 19.0184 12.8473 18.5605 13.9125C18.1026 14.9777 17.4793 15.9037 16.6906 16.6906C15.902 17.4775 14.9759 18.1011 13.9125 18.5614C12.8491 19.0216 11.7116 19.2512 10.5 19.25ZM10.5 17.5C12.4542 17.5 14.1094 16.8219 15.4656 15.4656C16.8219 14.1094 17.5 12.4542 17.5 10.5C17.5 8.54583 16.8219 6.89062 15.4656 5.53438C14.1094 4.17813 12.4542 3.5 10.5 3.5C8.54583 3.5 6.89063 4.17813 5.53438 5.53438C4.17813 6.89062 3.5 8.54583 3.5 10.5C3.5 12.4542 4.17813 14.1094 5.53438 15.4656C6.89063 16.8219 8.54583 17.5 10.5 17.5Z" fill="#6A7282"/>
</svg>
