<svg width="20" height="20" viewBox="0 0 20 20" fill="none" xmlns="http://www.w3.org/2000/svg">
<path d="M19.6648 9.25937L18.5711 6.525C18.5013 6.35152 18.3812 6.20288 18.2262 6.09819C18.0713 5.9935 17.8886 5.93754 17.7016 5.9375H14.6875V5C14.6875 4.91712 14.6546 4.83763 14.596 4.77903C14.5374 4.72042 14.4579 4.6875 14.375 4.6875H2.5C2.25136 4.6875 2.0129 4.78627 1.83709 4.96209C1.66127 5.1379 1.5625 5.37636 1.5625 5.625V14.375C1.5625 14.6236 1.66127 14.8621 1.83709 15.0379C2.0129 15.2137 2.25136 15.3125 2.5 15.3125H4.08516C4.16063 15.8328 4.42097 16.3085 4.81853 16.6526C5.21608 16.9966 5.72425 17.186 6.25 17.186C6.77575 17.186 7.28392 16.9966 7.68147 16.6526C8.07903 16.3085 8.33937 15.8328 8.41484 15.3125H12.8352C12.9106 15.8328 13.171 16.3085 13.5685 16.6526C13.9661 16.9966 14.4742 17.186 15 17.186C15.5258 17.186 16.0339 16.9966 16.4315 16.6526C16.829 16.3085 17.0894 15.8328 17.1648 15.3125H18.75C18.9986 15.3125 19.2371 15.2137 19.4129 15.0379C19.5887 14.8621 19.6875 14.6236 19.6875 14.375V9.375C19.6873 9.33537 19.6797 9.29613 19.6648 9.25937ZM14.6875 6.5625H17.7016C17.7641 6.56238 17.8252 6.581 17.877 6.61595C17.9288 6.65091 17.9689 6.70059 17.9922 6.75859L18.9133 9.0625H14.6875V6.5625ZM2.1875 5.625C2.1875 5.54212 2.22042 5.46263 2.27903 5.40403C2.33763 5.34542 2.41712 5.3125 2.5 5.3125H14.0625V10.9375H2.1875V5.625ZM6.25 16.5625C5.94097 16.5625 5.63887 16.4709 5.38192 16.2992C5.12497 16.1275 4.9247 15.8835 4.80644 15.5979C4.68818 15.3124 4.65723 14.9983 4.71752 14.6952C4.77781 14.3921 4.92663 14.1137 5.14515 13.8951C5.36367 13.6766 5.64208 13.5278 5.94517 13.4675C6.24827 13.4072 6.56243 13.4382 6.84794 13.5564C7.13345 13.6747 7.37748 13.875 7.54917 14.1319C7.72086 14.3889 7.8125 14.691 7.8125 15C7.8125 15.4144 7.64788 15.8118 7.35485 16.1049C7.06183 16.3979 6.6644 16.5625 6.25 16.5625ZM12.8352 14.6875H8.41484C8.33937 14.1672 8.07903 13.6915 7.68147 13.3474C7.28392 13.0034 6.77575 12.814 6.25 12.814C5.72425 12.814 5.21608 13.0034 4.81853 13.3474C4.42097 13.6915 4.16063 14.1672 4.08516 14.6875H2.5C2.41712 14.6875 2.33763 14.6546 2.27903 14.596C2.22042 14.5374 2.1875 14.4579 2.1875 14.375V11.5625H14.0625V13.0242C13.7369 13.1791 13.4545 13.4119 13.2404 13.7021C13.0263 13.9922 12.8871 14.3307 12.8352 14.6875ZM15 16.5625C14.691 16.5625 14.3889 16.4709 14.1319 16.2992C13.875 16.1275 13.6747 15.8835 13.5564 15.5979C13.4382 15.3124 13.4072 14.9983 13.4675 14.6952C13.5278 14.3921 13.6766 14.1137 13.8951 13.8951C14.1137 13.6766 14.3921 13.5278 14.6952 13.4675C14.9983 13.4072 15.3124 13.4382 15.5979 13.5564C15.8835 13.6747 16.1275 13.875 16.2992 14.1319C16.4709 14.3889 16.5625 14.691 16.5625 15C16.5625 15.4144 16.3979 15.8118 16.1049 16.1049C15.8118 16.3979 15.4144 16.5625 15 16.5625ZM19.0625 14.375C19.0625 14.4579 19.0296 14.5374 18.971 14.596C18.9124 14.6546 18.8329 14.6875 18.75 14.6875H17.1648C17.0819 14.1134 16.7743 13.5957 16.3098 13.2483C15.8452 12.901 15.2616 12.7523 14.6875 12.8352V9.6875H19.0625V14.375Z" fill="#6A7282"/>
</svg>
