<svg width="13" height="13" viewBox="0 0 13 13" fill="none" xmlns="http://www.w3.org/2000/svg">
<path d="M2.75 1C2.28587 1 1.84075 1.18437 1.51256 1.51256C1.18437 1.84075 1 2.28587 1 2.75V10.25C1 10.7141 1.18437 11.1592 1.51256 11.4874C1.84075 11.8156 2.28587 12 2.75 12H10.25C10.7141 12 11.1592 11.8156 11.4874 11.4874C11.8156 11.1592 12 10.7141 12 10.25V8C12 7.86739 12.0527 7.74021 12.1464 7.64645C12.2402 7.55268 12.3674 7.5 12.5 7.5C12.6326 7.5 12.7598 7.55268 12.8536 7.64645C12.9473 7.74021 13 7.86739 13 8V10.25C13 10.9793 12.7103 11.6788 12.1945 12.1945C11.6788 12.7103 10.9793 13 10.25 13H2.75C2.02065 13 1.32118 12.7103 0.805456 12.1945C0.289731 11.6788 0 10.9793 0 10.25V2.75C0 2.02065 0.289731 1.32118 0.805456 0.805456C1.32118 0.289731 2.02065 0 2.75 0H5C5.13261 0 5.25979 0.0526784 5.35355 0.146447C5.44732 0.240215 5.5 0.367392 5.5 0.5C5.5 0.632608 5.44732 0.759785 5.35355 0.853553C5.25979 0.947321 5.13261 1 5 1H2.75ZM7.5 0.5C7.5 0.367392 7.55268 0.240215 7.64645 0.146447C7.74021 0.0526784 7.86739 0 8 0H12.5C12.6326 0 12.7598 0.0526784 12.8536 0.146447C12.9473 0.240215 13 0.367392 13 0.5V5C13 5.13261 12.9473 5.25979 12.8536 5.35355C12.7598 5.44732 12.6326 5.5 12.5 5.5C12.3674 5.5 12.2402 5.44732 12.1464 5.35355C12.0527 5.25979 12 5.13261 12 5V1.707L8.3535 5.3535C8.2592 5.44458 8.1329 5.49498 8.0018 5.49384C7.8707 5.4927 7.74529 5.44011 7.65259 5.34741C7.55989 5.25471 7.5073 5.1293 7.50616 4.9982C7.50502 4.8671 7.55542 4.7408 7.6465 4.6465L11.293 1H8C7.86739 1 7.74021 0.947321 7.64645 0.853553C7.55268 0.759785 7.5 0.632608 7.5 0.5Z" fill="black"/>
</svg>
