<svg width="15" height="15" viewBox="0 0 15 15" fill="none" xmlns="http://www.w3.org/2000/svg">
<path d="M6.72222 12.9444H11C11.722 12.9444 12.4144 12.6576 12.9249 12.1471C13.4354 11.6366 13.7222 10.9442 13.7222 10.2222C13.7222 9.50024 13.4354 8.80784 12.9249 8.29732C12.4144 7.78681 11.722 7.5 11 7.5H4.77778C4.0558 7.5 3.36339 7.2132 2.85288 6.70268C2.34236 6.19216 2.05556 5.49976 2.05556 4.77778C2.05556 4.0558 2.34236 3.36339 2.85288 2.85288C3.36339 2.34236 4.0558 2.05556 4.77778 2.05556H8.27778M0.5 12.9444C0.5 13.357 0.663888 13.7527 0.955612 14.0444C1.24733 14.3361 1.643 14.5 2.05556 14.5C2.46811 14.5 2.86378 14.3361 3.1555 14.0444C3.44722 13.7527 3.61111 13.357 3.61111 12.9444C3.61111 12.5319 3.44722 12.1362 3.1555 11.8445C2.86378 11.5528 2.46811 11.3889 2.05556 11.3889C1.643 11.3889 1.24733 11.5528 0.955612 11.8445C0.663888 12.1362 0.5 12.5319 0.5 12.9444ZM12.9444 3.61111C13.357 3.61111 13.7527 3.44722 14.0444 3.1555C14.3361 2.86378 14.5 2.46811 14.5 2.05556C14.5 1.643 14.3361 1.24733 14.0444 0.955612C13.7527 0.663888 13.357 0.5 12.9444 0.5C12.5319 0.5 12.1362 0.663888 11.8445 0.955612C11.5528 1.24733 11.3889 1.643 11.3889 2.05556C11.3889 2.46811 11.5528 2.86378 11.8445 3.1555C12.1362 3.44722 12.5319 3.61111 12.9444 3.61111Z" stroke="black" stroke-linecap="round" stroke-linejoin="round"/>
</svg>
