<svg width="13" height="13" viewBox="0 0 13 13" fill="none" xmlns="http://www.w3.org/2000/svg">
<path d="M0.5 6.5V9.83333M0.5 9.83333H1.83333C2.776 9.83333 3.24733 9.83333 3.54 10.1267C3.83333 10.4187 3.83333 10.89 3.83333 11.8333V12.5M0.5 9.83333V12.5M1.16667 3.16667L4.71133 1.222C5.58867 0.740667 6.028 0.5 6.5 0.5C6.972 0.5 7.41133 0.740667 8.28867 1.222L11.8333 3.16667M10.5 2.5V5.16667M2.5 2.5V5.16667M12.5 6.5V9.83333M12.5 9.83333H11.1667C10.224 9.83333 9.75267 9.83333 9.46 10.1267C9.16667 10.4187 9.16667 10.89 9.16667 11.8333V12.5M12.5 9.83333V12.5M3.16667 7.83333H6.5M6.5 7.83333H9.83333M6.5 7.83333V12.5M6.5 12.5H5.83333M6.5 12.5H7.16667" stroke="black" stroke-linecap="round" stroke-linejoin="round"/>
</svg>
