<svg width="18" height="18" viewBox="0 0 18 18" fill="none" xmlns="http://www.w3.org/2000/svg">
<path fill-rule="evenodd" clip-rule="evenodd" d="M9.97493 4.4415L11.9812 5.922L9.97493 7.4025V4.4415ZM9.97493 13.5585L11.9812 12.078L9.97493 10.5975V13.5585ZM7.82536 9.01013L3.46828 5.77462L4.72906 4.84425L8.19734 7.4025V1.269L14.5043 5.922L10.3469 9.01125L14.5317 12.0994L8.22631 16.7535V10.5975L4.72906 13.1558L3.46828 12.2254L7.82536 9.01013ZM8.99924 18C14.332 18 18 16.1381 18 8.98875C18 1.86187 14.332 0 9.00076 0C3.66952 0 0 1.86188 0 9.01125C0 16.137 3.66799 18 8.99924 18Z" fill="white"/>
</svg>
