<svg width="16" height="18" viewBox="0 0 16 18" fill="none" xmlns="http://www.w3.org/2000/svg">
<path d="M13 18H3C1.346 18 0 16.654 0 15V3C0 1.346 1.346 0 3 0H13C14.654 0 16 1.346 16 3V15C16 16.654 14.654 18 13 18ZM3 2C2.449 2 2 2.449 2 3V15C2 15.551 2.449 16 3 16H13C13.551 16 14 15.551 14 15V3C14 2.449 13.551 2 13 2H3ZM12 8H4C3.86739 8 3.74021 7.94732 3.64645 7.85355C3.55268 7.75979 3.5 7.63261 3.5 7.5C3.5 7.36739 3.55268 7.24021 3.64645 7.14645C3.74021 7.05268 3.86739 7 4 7H12C12.1326 7 12.2598 7.05268 12.3536 7.14645C12.4473 7.24021 12.5 7.36739 12.5 7.5C12.5 7.63261 12.4473 7.75979 12.3536 7.85355C12.2598 7.94732 12.1326 8 12 8ZM12 5H4C3.86739 5 3.74021 4.94732 3.64645 4.85355C3.55268 4.75979 3.5 4.63261 3.5 4.5C3.5 4.36739 3.55268 4.24021 3.64645 4.14645C3.74021 4.05268 3.86739 4 4 4H12C12.1326 4 12.2598 4.05268 12.3536 4.14645C12.4473 4.24021 12.5 4.36739 12.5 4.5C12.5 4.63261 12.4473 4.75979 12.3536 4.85355C12.2598 4.94732 12.1326 5 12 5ZM12 11H4C3.86739 11 3.74021 10.9473 3.64645 10.8536C3.55268 10.7598 3.5 10.6326 3.5 10.5C3.5 10.3674 3.55268 10.2402 3.64645 10.1464C3.74021 10.0527 3.86739 10 4 10H12C12.1326 10 12.2598 10.0527 12.3536 10.1464C12.4473 10.2402 12.5 10.3674 12.5 10.5C12.5 10.6326 12.4473 10.7598 12.3536 10.8536C12.2598 10.9473 12.1326 11 12 11ZM12 14H4C3.86739 14 3.74021 13.9473 3.64645 13.8536C3.55268 13.7598 3.5 13.6326 3.5 13.5C3.5 13.3674 3.55268 13.2402 3.64645 13.1464C3.74021 13.0527 3.86739 13 4 13H12C12.1326 13 12.2598 13.0527 12.3536 13.1464C12.4473 13.2402 12.5 13.3674 12.5 13.5C12.5 13.6326 12.4473 13.7598 12.3536 13.8536C12.2598 13.9473 12.1326 14 12 14Z" fill="#6A7282"/>
</svg>
