<svg width="14" height="14" viewBox="0 0 14 14" fill="none" xmlns="http://www.w3.org/2000/svg">
<path d="M1.5 13.5C1.0875 13.5 0.7345 13.3533 0.441 13.0597C0.1475 12.7662 0.0005 12.413 0 12V1.5C0 1.0875 0.147 0.7345 0.441 0.441C0.735 0.1475 1.088 0.0005 1.5 0H6C6.2125 0 6.39075 0.0720001 6.53475 0.216C6.67875 0.36 6.7505 0.538 6.75 0.75C6.7495 0.962 6.6775 1.14025 6.534 1.28475C6.3905 1.42925 6.2125 1.501 6 1.5H1.5V12H6C6.2125 12 6.39075 12.072 6.53475 12.216C6.67875 12.36 6.7505 12.538 6.75 12.75C6.7495 12.962 6.6775 13.1402 6.534 13.2847C6.3905 13.4292 6.2125 13.501 6 13.5H1.5ZM10.6312 7.5H5.25C5.0375 7.5 4.8595 7.428 4.716 7.284C4.5725 7.14 4.5005 6.962 4.5 6.75C4.4995 6.538 4.5715 6.36 4.716 6.216C4.8605 6.072 5.0385 6 5.25 6H10.6312L9.225 4.59375C9.0875 4.45625 9.01875 4.2875 9.01875 4.0875C9.01875 3.8875 9.0875 3.7125 9.225 3.5625C9.3625 3.4125 9.5375 3.33425 9.75 3.32775C9.9625 3.32125 10.1438 3.39325 10.2938 3.54375L12.975 6.225C13.125 6.375 13.2 6.55 13.2 6.75C13.2 6.95 13.125 7.125 12.975 7.275L10.2938 9.95625C10.1438 10.1062 9.96575 10.1782 9.75975 10.1722C9.55375 10.1663 9.3755 10.088 9.225 9.9375C9.0875 9.7875 9.022 9.6095 9.0285 9.4035C9.035 9.1975 9.10675 9.0255 9.24375 8.8875L10.6312 7.5Z" fill="#6A7282"/>
</svg>
